<?xml version="1.0" encoding="UTF-8"?>
<svg xmlns="http://www.w3.org/2000/svg" xmlns:xlink="http://www.w3.org/1999/xlink" width="400px" height="400px" viewBox="0 0 400 400" version="1.1">
<g id="surface1">
<path style=" stroke:none;fill-rule:nonzero;fill:rgb(0%,0%,0%);fill-opacity:1;" d="M 241 177.699219 C 260.433594 161.617188 269.050781 66.601562 277.464844 32.449219 C 285.882812 -1.714844 320.683594 0.015625 320.683594 0.015625 C 320.683594 0.015625 311.648438 15.75 315.332031 27.484375 C 319.015625 39.214844 344.265625 49.699219 344.265625 49.699219 L 338.816406 64.050781 C 338.816406 64.050781 327.449219 62.601562 320.683594 76.132812 C 313.917969 89.667969 325.035156 223.683594 325.035156 223.683594 C 325.035156 223.683594 284.367188 303.898438 284.367188 337.765625 C 284.367188 371.632812 300.398438 400 300.398438 400 L 277.898438 400 C 277.898438 400 244.898438 360.734375 238.132812 341.117188 C 231.367188 321.484375 234.082031 301.867188 234.082031 301.867188 C 234.082031 301.867188 198.214844 299.832031 166.398438 301.867188 C 134.601562 303.898438 113.382812 331.234375 109.566406 346.535156 C 105.734375 361.816406 104.148438 400 104.148438 400 L 86.367188 400 C 75.535156 366.601562 66.933594 354.632812 71.601562 337.765625 C 84.535156 291.035156 81.984375 264.535156 79 252.734375 C 76 240.933594 55.75 230.632812 55.75 230.632812 C 65.667969 210.417969 75.800781 200.699219 119.367188 199.683594 C 162.917969 198.683594 221.566406 193.785156 241 177.699219 Z M 154.617188 314.515625 C 154.617188 314.515625 156.882812 376.316406 177.816406 400 L 156.882812 400 C 132.484375 378.332031 127.882812 335.800781 127.882812 335.800781 C 129.234375 330.398438 143.964844 317.984375 154.617188 314.515625 Z M 154.617188 314.515625 "/>
</g>
</svg>
