<svg width="368" height="386" viewBox="0 0 368 386" fill="none" xmlns="http://www.w3.org/2000/svg">
<path d="M13.1305 9.61276H60.5043L56.1863 58.4669L36.694 64.8821L17.3251 58.4669L13.1305 9.61276ZM51.1282 25.404L51.6217 19.6057H21.8897L23.4935 37.4942H44.0962L43.3559 45.1431L36.694 46.9936L30.1554 45.1431L29.662 40.455H23.7403L24.4805 49.8311L36.694 53.1621H36.8174L48.9076 49.8311L50.6347 31.5725H28.9218L28.4283 25.404H51.1282Z" fill="black"/>
<path d="M15.5178 78.5527V93.9689H12.5431V87.3898H5.55155V93.9689H2.55516V78.5527H5.55155V84.7843H12.5431V78.5527H15.5178ZM30.2635 81.1799H25.3346V93.9689H22.3599V81.1799H17.4311V78.5527H30.2635V81.1799ZM44.7491 93.9689V83.8506L40.7973 91.385H39.1254L35.1736 83.8506V93.9689H32.1773V78.5527H35.3908L39.9505 87.3247L44.5536 78.5527H47.7455V93.9689H44.7491ZM50.9641 93.9689V78.5527H53.9604V91.3416H61.8205V93.9689H50.9641ZM67.7261 97.2041C66.6115 97.2041 65.6055 96.9653 64.708 96.4876C63.8106 96.0099 63.1302 95.3585 62.667 94.5334L64.3389 92.7964C64.7442 93.3609 65.2509 93.8096 65.8588 94.1426C66.4668 94.4755 67.0965 94.642 67.7478 94.642C68.269 94.642 68.7249 94.5334 69.1158 94.3163C69.5211 94.0991 69.8395 93.7952 70.0711 93.4043C70.3027 93.0135 70.4185 92.5648 70.4185 92.0581C70.4185 91.5515 70.31 91.11 70.0928 90.7336C69.8757 90.3573 69.579 90.0678 69.2026 89.8651C68.8263 89.648 68.3992 89.5394 67.9216 89.5394C67.4439 89.5394 66.9951 89.648 66.5753 89.8651C66.17 90.0678 65.8443 90.3645 65.5983 90.7554H63.0578L64.8383 81.5708H72.4378V84.2197H66.9445L66.3148 87.6721C66.503 87.4984 66.7635 87.3537 67.0965 87.2379C67.4294 87.1076 67.8419 87.0424 68.3341 87.0424C69.3039 87.0424 70.1725 87.2523 70.9397 87.6721C71.7068 88.0919 72.3076 88.6781 72.7418 89.4309C73.1761 90.1691 73.3932 91.0231 73.3932 91.993C73.3932 93.0207 73.1471 93.9254 72.655 94.7071C72.1628 95.5033 71.4897 96.1185 70.6357 96.5527C69.7816 96.987 68.8118 97.2041 67.7261 97.2041Z" fill="black"/>
<path d="M202.333 9.61276L194.437 55.0126L166.803 64.8821L143.116 55.0126L145.46 43.4159H155.576L154.589 48.3507L169.023 53.9023L185.555 48.3507L187.775 36.3839H146.693L148.667 26.2676H189.873L191.106 19.729H150.024L151.998 9.61276H202.333Z" fill="black"/>
<path d="M149.309 86.1522C149.309 85.2113 149.476 84.2921 149.809 83.3947C150.156 82.4827 150.655 81.6576 151.307 80.9194C151.958 80.1667 152.754 79.5732 153.695 79.1389C154.636 78.6902 155.707 78.4658 156.909 78.4658C158.327 78.4658 159.551 78.777 160.578 79.3995C161.62 80.0219 162.395 80.8325 162.902 81.8313L160.6 83.4164C160.339 82.8374 159.999 82.3814 159.579 82.0485C159.16 81.701 158.711 81.4622 158.233 81.3319C157.756 81.1872 157.285 81.1148 156.822 81.1148C156.069 81.1148 155.411 81.2668 154.846 81.5708C154.296 81.8747 153.833 82.2728 153.456 82.765C153.08 83.2571 152.798 83.8072 152.61 84.4152C152.436 85.0231 152.349 85.6311 152.349 86.2391C152.349 86.9194 152.458 87.578 152.675 88.2149C152.892 88.8374 153.196 89.3947 153.587 89.8868C153.992 90.3645 154.47 90.7481 155.02 91.0376C155.584 91.3127 156.199 91.4502 156.865 91.4502C157.343 91.4502 157.828 91.3706 158.32 91.2113C158.812 91.0521 159.268 90.7988 159.688 90.4514C160.108 90.104 160.434 89.6552 160.665 89.1052L163.119 90.5165C162.815 91.2837 162.315 91.9351 161.621 92.4707C160.94 93.0063 160.173 93.4116 159.319 93.6866C158.465 93.9616 157.618 94.0991 156.779 94.0991C155.678 94.0991 154.672 93.8748 153.76 93.426C152.848 92.9628 152.06 92.3549 151.394 91.6022C150.742 90.835 150.228 89.9809 149.852 89.04C149.49 88.0847 149.309 87.122 149.309 86.1522ZM174.313 82.5913C174.211 82.4899 174.023 82.3524 173.748 82.1787C173.488 82.005 173.162 81.8386 172.771 81.6793C172.395 81.5201 171.982 81.3826 171.533 81.2668C171.085 81.1365 170.629 81.0714 170.166 81.0714C169.355 81.0714 168.74 81.2234 168.32 81.5273C167.915 81.8313 167.712 82.2583 167.712 82.8084C167.712 83.2282 167.842 83.5611 168.103 83.8072C168.363 84.0533 168.754 84.2632 169.275 84.4369C169.796 84.6106 170.448 84.7988 171.23 85.0014C172.243 85.2475 173.119 85.5515 173.857 85.9134C174.609 86.2608 175.181 86.724 175.572 87.303C175.977 87.8675 176.18 88.6202 176.18 89.5611C176.18 90.3862 176.028 91.0955 175.724 91.689C175.42 92.268 175 92.7385 174.465 93.1004C173.929 93.4622 173.321 93.73 172.641 93.9037C171.961 94.063 171.237 94.1426 170.47 94.1426C169.702 94.1426 168.935 94.063 168.168 93.9037C167.401 93.7445 166.663 93.5201 165.953 93.2306C165.244 92.9266 164.593 92.5648 163.999 92.145L165.324 89.5611C165.454 89.6914 165.685 89.8651 166.018 90.0823C166.351 90.2849 166.757 90.4948 167.234 90.7119C167.712 90.9146 168.233 91.0883 168.798 91.233C169.362 91.3778 169.934 91.4502 170.513 91.4502C171.324 91.4502 171.939 91.3127 172.359 91.0376C172.778 90.7626 172.988 90.3718 172.988 89.8651C172.988 89.4019 172.822 89.04 172.489 88.7795C172.156 88.5189 171.693 88.2945 171.099 88.1064C170.506 87.9037 169.804 87.6866 168.993 87.455C168.023 87.1799 167.213 86.876 166.561 86.543C165.91 86.1956 165.425 85.7614 165.106 85.2403C164.788 84.7191 164.629 84.0678 164.629 83.2861C164.629 82.2294 164.875 81.3464 165.367 80.6371C165.874 79.9133 166.554 79.3705 167.408 79.0086C168.262 78.6323 169.21 78.4441 170.252 78.4441C170.976 78.4441 171.657 78.5237 172.293 78.6829C172.945 78.8422 173.553 79.0521 174.117 79.3126C174.682 79.5732 175.189 79.8554 175.637 80.1594L174.313 82.5913ZM187.629 82.5913C187.528 82.4899 187.339 82.3524 187.064 82.1787C186.804 82.005 186.478 81.8386 186.087 81.6793C185.711 81.5201 185.298 81.3826 184.85 81.2668C184.401 81.1365 183.945 81.0714 183.482 81.0714C182.671 81.0714 182.056 81.2234 181.636 81.5273C181.231 81.8313 181.028 82.2583 181.028 82.8084C181.028 83.2282 181.158 83.5611 181.419 83.8072C181.68 84.0533 182.07 84.2632 182.592 84.4369C183.113 84.6106 183.764 84.7988 184.546 85.0014C185.559 85.2475 186.435 85.5515 187.173 85.9134C187.926 86.2608 188.497 86.724 188.888 87.303C189.294 87.8675 189.496 88.6202 189.496 89.5611C189.496 90.3862 189.344 91.0955 189.04 91.689C188.736 92.268 188.316 92.7385 187.781 93.1004C187.245 93.4622 186.637 93.73 185.957 93.9037C185.277 94.063 184.553 94.1426 183.786 94.1426C183.019 94.1426 182.251 94.063 181.484 93.9037C180.717 93.7445 179.979 93.5201 179.269 93.2306C178.56 92.9266 177.909 92.5648 177.315 92.145L178.64 89.5611C178.77 89.6914 179.002 89.8651 179.335 90.0823C179.667 90.2849 180.073 90.4948 180.55 90.7119C181.028 90.9146 181.549 91.0883 182.114 91.233C182.678 91.3778 183.25 91.4502 183.829 91.4502C184.64 91.4502 185.255 91.3127 185.675 91.0376C186.095 90.7626 186.304 90.3718 186.304 89.8651C186.304 89.4019 186.138 89.04 185.805 88.7795C185.472 88.5189 185.009 88.2945 184.415 88.1064C183.822 87.9037 183.12 87.6866 182.309 87.455C181.339 87.1799 180.529 86.876 179.877 86.543C179.226 86.1956 178.741 85.7614 178.423 85.2403C178.104 84.7191 177.945 84.0678 177.945 83.2861C177.945 82.2294 178.191 81.3464 178.683 80.6371C179.19 79.9133 179.87 79.3705 180.724 79.0086C181.578 78.6323 182.526 78.4441 183.569 78.4441C184.292 78.4441 184.973 78.5237 185.61 78.6829C186.261 78.8422 186.869 79.0521 187.433 79.3126C187.998 79.5732 188.505 79.8554 188.953 80.1594L187.629 82.5913ZM198.299 88.8446C198.907 88.9459 199.435 89.1775 199.884 89.5394C200.333 89.8868 200.68 90.3356 200.926 90.8856C201.187 91.4357 201.317 92.0437 201.317 92.7095C201.317 93.607 201.086 94.3887 200.622 95.0545C200.159 95.7204 199.501 96.2343 198.647 96.5961C197.807 96.9725 196.815 97.1607 195.672 97.1607C194.572 97.1607 193.595 96.9797 192.741 96.6179C191.901 96.2704 191.199 95.7566 190.634 95.0762L192.285 93.0135C192.661 93.4767 193.11 93.8386 193.631 94.0991C194.166 94.3742 194.818 94.5117 195.585 94.5117C196.468 94.5117 197.141 94.3308 197.604 93.9689C198.068 93.6215 198.299 93.0931 198.299 92.3838C198.299 91.6311 198.031 91.0521 197.496 90.6468C196.96 90.2415 196.15 90.0388 195.064 90.0388H194.456V87.8675H195.129C196.012 87.8675 196.7 87.6649 197.192 87.2596C197.698 86.8543 197.952 86.3476 197.952 85.7397C197.952 85.3488 197.858 85.0231 197.669 84.7626C197.481 84.502 197.221 84.3066 196.888 84.1763C196.569 84.046 196.193 83.9809 195.759 83.9809C195.107 83.9809 194.514 84.1329 193.978 84.4369C193.443 84.7409 193.008 85.1679 192.675 85.7179L190.852 83.6769C191.156 83.2282 191.568 82.8446 192.089 82.5261C192.625 82.1932 193.233 81.9326 193.913 81.7445C194.608 81.5563 195.332 81.4622 196.084 81.4622C197.069 81.4622 197.93 81.6214 198.668 81.9399C199.421 82.2583 200.007 82.7071 200.427 83.2861C200.847 83.8651 201.057 84.5382 201.057 85.3054C201.057 85.8699 200.941 86.4055 200.709 86.9122C200.478 87.4188 200.152 87.8458 199.732 88.1932C199.327 88.5262 198.849 88.7433 198.299 88.8446Z" fill="black"/>
<path d="M284.945 9.61276H340.214V64.8821H284.945V9.61276ZM314.924 52.792V35.0268H309.742V52.6686C309.742 55.2593 308.632 55.9996 307.028 55.9996C305.177 55.9996 304.437 54.7659 303.697 53.2854L299.379 55.8762C300.613 58.4669 303.08 60.5642 307.151 60.5642C311.839 60.5642 314.924 58.0968 314.924 52.792ZM327.261 60.5642C332.195 60.5642 335.896 58.0968 335.896 53.4088C335.896 49.0909 333.429 47.117 328.988 45.2664L327.631 44.6496C325.41 43.6626 324.423 43.0458 324.423 41.442C324.423 40.2083 325.41 39.2214 326.89 39.2214C328.494 39.2214 329.358 39.9616 330.345 41.442L334.293 38.8512C332.689 35.8904 330.221 34.7801 327.014 34.7801C322.326 34.7801 319.365 37.7409 319.365 41.5654C319.365 45.8833 321.832 47.8572 325.533 49.461L326.89 49.9545C329.234 51.0648 330.715 51.6816 330.715 53.4088C330.715 54.8892 329.234 55.9996 327.137 55.9996C324.546 55.9996 323.189 54.6425 322.079 52.9153L317.761 55.2593C319.365 58.3436 322.449 60.5642 327.261 60.5642Z" fill="black"/>
<path d="M260.049 90.8205C260.237 90.9508 260.57 91.11 261.048 91.2982C261.525 91.4719 262.09 91.5587 262.741 91.5587C263.306 91.5587 263.769 91.4646 264.131 91.2765C264.493 91.0738 264.768 90.7771 264.956 90.3862C265.159 89.9954 265.289 89.4888 265.347 88.8663C265.419 88.2439 265.455 87.4984 265.455 86.6299V78.5527H268.452V86.391C268.452 87.5491 268.387 88.6058 268.256 89.5611C268.126 90.5165 267.873 91.3416 267.496 92.0364C267.12 92.7312 266.548 93.2668 265.781 93.6432C265.028 94.0195 264.022 94.2077 262.763 94.2077C262.068 94.2077 261.446 94.1281 260.896 93.9689C260.345 93.8096 259.839 93.5708 259.376 93.2523L260.049 90.8205ZM270.22 90.6034C270.22 89.8651 270.423 89.221 270.828 88.6709C271.248 88.1064 271.827 87.6721 272.565 87.3681C273.303 87.0641 274.15 86.9122 275.105 86.9122C275.583 86.9122 276.068 86.9483 276.56 87.0207C277.052 87.0931 277.479 87.2089 277.841 87.3681V86.7602C277.841 86.0364 277.624 85.4791 277.19 85.0883C276.77 84.6974 276.14 84.502 275.301 84.502C274.678 84.502 274.085 84.6106 273.52 84.8277C272.956 85.0448 272.362 85.3633 271.74 85.7831L270.806 83.8723C271.559 83.3802 272.326 83.0111 273.108 82.765C273.904 82.5189 274.736 82.3959 275.605 82.3959C277.226 82.3959 278.485 82.8012 279.383 83.6118C280.295 84.4224 280.751 85.5804 280.751 87.0859V90.7119C280.751 91.0159 280.802 91.233 280.903 91.3633C281.019 91.4936 281.2 91.5732 281.446 91.6022V93.9689C281.185 94.0123 280.946 94.0485 280.729 94.0774C280.526 94.1064 280.353 94.1209 280.208 94.1209C279.629 94.1209 279.188 93.9906 278.884 93.73C278.594 93.4695 278.413 93.151 278.341 92.7747L278.276 92.1884C277.783 92.8253 277.168 93.3175 276.43 93.6649C275.692 94.0123 274.939 94.186 274.172 94.186C273.419 94.186 272.739 94.034 272.131 93.73C271.537 93.4116 271.067 92.9846 270.719 92.449C270.387 91.8989 270.22 91.2837 270.22 90.6034ZM277.298 91.1896C277.458 91.0159 277.588 90.8422 277.689 90.6685C277.791 90.4948 277.841 90.3356 277.841 90.1908V89.04C277.494 88.8953 277.118 88.7867 276.712 88.7143C276.307 88.6275 275.923 88.5841 275.561 88.5841C274.809 88.5841 274.186 88.7505 273.694 89.0835C273.216 89.4019 272.978 89.8289 272.978 90.3645C272.978 90.654 273.057 90.9291 273.216 91.1896C273.376 91.4502 273.607 91.6601 273.911 91.8193C274.215 91.9785 274.577 92.0581 274.997 92.0581C275.431 92.0581 275.858 91.9785 276.278 91.8193C276.698 91.6456 277.038 91.4357 277.298 91.1896ZM286.128 93.9689L281.938 82.5913H284.956L287.822 91.3199L290.71 82.5913H293.467L289.298 93.9689H286.128ZM293.926 90.6034C293.926 89.8651 294.129 89.221 294.534 88.6709C294.954 88.1064 295.533 87.6721 296.271 87.3681C297.009 87.0641 297.856 86.9122 298.812 86.9122C299.289 86.9122 299.774 86.9483 300.266 87.0207C300.759 87.0931 301.186 87.2089 301.547 87.3681V86.7602C301.547 86.0364 301.33 85.4791 300.896 85.0883C300.476 84.6974 299.847 84.502 299.007 84.502C298.385 84.502 297.791 84.6106 297.227 84.8277C296.662 85.0448 296.069 85.3633 295.446 85.7831L294.512 83.8723C295.265 83.3802 296.032 83.0111 296.814 82.765C297.61 82.5189 298.443 82.3959 299.311 82.3959C300.932 82.3959 302.192 82.8012 303.089 83.6118C304.001 84.4224 304.457 85.5804 304.457 87.0859V90.7119C304.457 91.0159 304.508 91.233 304.609 91.3633C304.725 91.4936 304.906 91.5732 305.152 91.6022V93.9689C304.891 94.0123 304.652 94.0485 304.435 94.0774C304.233 94.1064 304.059 94.1209 303.914 94.1209C303.335 94.1209 302.894 93.9906 302.59 93.73C302.3 93.4695 302.119 93.151 302.047 92.7747L301.982 92.1884C301.49 92.8253 300.874 93.3175 300.136 93.6649C299.398 94.0123 298.645 94.186 297.878 94.186C297.125 94.186 296.445 94.034 295.837 93.73C295.243 93.4116 294.773 92.9846 294.426 92.449C294.093 91.8989 293.926 91.2837 293.926 90.6034ZM301.005 91.1896C301.164 91.0159 301.294 90.8422 301.395 90.6685C301.497 90.4948 301.547 90.3356 301.547 90.1908V89.04C301.2 88.8953 300.824 88.7867 300.418 88.7143C300.013 88.6275 299.629 88.5841 299.268 88.5841C298.515 88.5841 297.892 88.7505 297.4 89.0835C296.923 89.4019 296.684 89.8289 296.684 90.3645C296.684 90.654 296.763 90.9291 296.923 91.1896C297.082 91.4502 297.313 91.6601 297.617 91.8193C297.921 91.9785 298.283 92.0581 298.703 92.0581C299.137 92.0581 299.564 91.9785 299.984 91.8193C300.404 91.6456 300.744 91.4357 301.005 91.1896ZM316.643 82.5913C316.541 82.4899 316.353 82.3524 316.078 82.1787C315.818 82.005 315.492 81.8386 315.101 81.6793C314.725 81.5201 314.312 81.3826 313.863 81.2668C313.415 81.1365 312.959 81.0714 312.496 81.0714C311.685 81.0714 311.07 81.2234 310.65 81.5273C310.245 81.8313 310.042 82.2583 310.042 82.8084C310.042 83.2282 310.172 83.5611 310.433 83.8072C310.693 84.0533 311.084 84.2632 311.605 84.4369C312.126 84.6106 312.778 84.7988 313.559 85.0014C314.573 85.2475 315.449 85.5515 316.187 85.9134C316.939 86.2608 317.511 86.724 317.902 87.303C318.307 87.8675 318.51 88.6202 318.51 89.5611C318.51 90.3862 318.358 91.0955 318.054 91.689C317.75 92.268 317.33 92.7385 316.795 93.1004C316.259 93.4622 315.651 93.73 314.971 93.9037C314.29 94.063 313.567 94.1426 312.8 94.1426C312.032 94.1426 311.265 94.063 310.498 93.9037C309.731 93.7445 308.993 93.5201 308.283 93.2306C307.574 92.9266 306.923 92.5648 306.329 92.145L307.654 89.5611C307.784 89.6914 308.015 89.8651 308.348 90.0823C308.681 90.2849 309.087 90.4948 309.564 90.7119C310.042 90.9146 310.563 91.0883 311.128 91.233C311.692 91.3778 312.264 91.4502 312.843 91.4502C313.654 91.4502 314.269 91.3127 314.689 91.0376C315.108 90.7626 315.318 90.3718 315.318 89.8651C315.318 89.4019 315.152 89.04 314.819 88.7795C314.486 88.5189 314.023 88.2945 313.429 88.1064C312.836 87.9037 312.134 87.6866 311.323 87.455C310.353 87.1799 309.543 86.876 308.891 86.543C308.24 86.1956 307.755 85.7614 307.436 85.2403C307.118 84.7191 306.959 84.0678 306.959 83.2861C306.959 82.2294 307.205 81.3464 307.697 80.6371C308.204 79.9133 308.884 79.3705 309.738 79.0086C310.592 78.6323 311.54 78.4441 312.582 78.4441C313.306 78.4441 313.987 78.5237 314.623 78.6829C315.275 78.8422 315.883 79.0521 316.447 79.3126C317.012 79.5732 317.518 79.8554 317.967 80.1594L316.643 82.5913ZM325.79 94.186C324.864 94.186 324.031 94.034 323.293 93.73C322.555 93.4116 321.925 92.9773 321.404 92.4273C320.883 91.8627 320.478 91.2258 320.188 90.5165C319.913 89.8072 319.776 89.0617 319.776 88.2801C319.776 87.2089 320.014 86.2318 320.492 85.3488C320.984 84.4514 321.679 83.7348 322.576 83.1992C323.474 82.6637 324.538 82.3959 325.768 82.3959C326.999 82.3959 328.055 82.6637 328.938 83.1992C329.821 83.7348 330.48 84.4369 330.914 85.3054L328.07 86.1739C327.824 85.7541 327.498 85.4357 327.093 85.2185C326.687 84.9869 326.239 84.8711 325.747 84.8711C325.197 84.8711 324.69 85.0159 324.227 85.3054C323.778 85.5804 323.423 85.9785 323.163 86.4996C322.902 87.0062 322.772 87.5997 322.772 88.2801C322.772 88.9459 322.902 89.5394 323.163 90.0605C323.438 90.5672 323.8 90.9725 324.248 91.2765C324.697 91.566 325.197 91.7107 325.747 91.7107C326.094 91.7107 326.42 91.6528 326.724 91.537C327.042 91.4212 327.324 91.262 327.57 91.0593C327.817 90.8567 327.997 90.6251 328.113 90.3645L330.958 91.233C330.697 91.7976 330.314 92.3042 329.807 92.7529C329.315 93.2017 328.728 93.5563 328.048 93.8169C327.382 94.063 326.63 94.186 325.79 94.186ZM339.522 85.11C338.639 85.11 337.851 85.2837 337.156 85.6311C336.461 85.964 335.962 86.4489 335.658 87.0859V93.9689H332.748V82.5913H335.419V85.0231C335.824 84.2415 336.338 83.6263 336.96 83.1775C337.583 82.7288 338.241 82.4827 338.936 82.4393C339.095 82.4393 339.218 82.4393 339.305 82.4393C339.392 82.4393 339.465 82.4465 339.522 82.461V85.11ZM341.145 93.9689V82.5913H344.054V93.9689H341.145ZM341.145 81.0062V78.1184H344.054V81.0062H341.145ZM353.497 94.186C352.614 94.186 351.832 93.9906 351.152 93.5998C350.486 93.1944 349.965 92.6516 349.589 91.9713V98.5937H346.679V82.5913H349.219V84.5454C349.654 83.8796 350.204 83.3585 350.87 82.9821C351.536 82.5913 352.295 82.3959 353.15 82.3959C353.917 82.3959 354.619 82.5478 355.256 82.8518C355.907 83.1558 356.472 83.5828 356.949 84.1329C357.427 84.6685 357.796 85.2909 358.057 86.0002C358.332 86.695 358.469 87.4477 358.469 88.2584C358.469 89.3585 358.252 90.3573 357.818 91.2548C357.398 92.1522 356.812 92.8687 356.059 93.4043C355.321 93.9254 354.467 94.186 353.497 94.186ZM352.52 91.7107C352.969 91.7107 353.374 91.6166 353.736 91.4285C354.098 91.2403 354.409 90.987 354.669 90.6685C354.944 90.3356 355.147 89.9664 355.277 89.5611C355.422 89.1414 355.495 88.7071 355.495 88.2584C355.495 87.7807 355.415 87.3392 355.256 86.9339C355.111 86.5286 354.894 86.1739 354.604 85.8699C354.315 85.5515 353.975 85.3054 353.584 85.1317C353.207 84.958 352.795 84.8711 352.346 84.8711C352.071 84.8711 351.789 84.9218 351.499 85.0231C351.224 85.11 350.957 85.2403 350.696 85.414C350.435 85.5877 350.204 85.7903 350.001 86.0219C349.813 86.2535 349.675 86.5068 349.589 86.7819V89.4526C349.762 89.8724 349.994 90.256 350.283 90.6034C350.587 90.9508 350.935 91.2258 351.326 91.4285C351.716 91.6166 352.115 91.7107 352.52 91.7107ZM367.11 93.3826C366.864 93.4839 366.567 93.5998 366.22 93.73C365.872 93.8603 365.496 93.9616 365.091 94.034C364.7 94.1209 364.302 94.1643 363.896 94.1643C363.361 94.1643 362.869 94.0702 362.42 93.882C361.971 93.6938 361.609 93.3971 361.334 92.9918C361.074 92.572 360.943 92.0292 360.943 91.3633V84.8277H359.445V82.5913H360.943V78.9001H363.853V82.5913H366.241V84.8277H363.853V90.3862C363.867 90.7771 363.976 91.0593 364.179 91.233C364.381 91.4067 364.635 91.4936 364.939 91.4936C365.243 91.4936 365.539 91.4429 365.829 91.3416C366.118 91.2403 366.35 91.1534 366.524 91.081L367.11 93.3826Z" fill="black"/>
<path d="M14.8577 160.681C14.8577 154.142 20.0392 148.837 26.5777 148.837H46.9337C53.4722 148.837 58.6537 154.142 58.6537 160.681C58.6537 164.875 56.5564 168.453 53.3488 170.55C56.5564 172.771 58.6537 176.348 58.6537 180.543C58.6537 186.958 53.4722 192.263 46.9337 192.263H46.6869C43.6027 192.263 40.7652 191.153 38.6679 189.179V200.159C38.6679 206.697 33.2397 212.002 26.7011 212.002C20.1625 212.002 14.8577 206.821 14.8577 200.282C14.8577 196.087 16.955 192.51 20.1625 190.412C16.955 188.192 14.8577 184.614 14.8577 180.543C14.8577 176.348 16.955 172.771 20.1625 170.55C16.955 168.453 14.8577 164.875 14.8577 160.681ZM34.8435 172.524H26.5777C22.2598 172.524 18.6821 176.102 18.6821 180.543C18.6821 184.861 22.1365 188.439 26.5777 188.439H34.8435V172.524ZM38.6679 180.543C38.6679 184.861 42.2456 188.439 46.6869 188.439H46.9337C51.2516 188.439 54.8293 184.861 54.8293 180.543C54.8293 176.102 51.2516 172.524 46.9337 172.524H46.6869C42.2456 172.524 38.6679 176.102 38.6679 180.543ZM26.5777 192.263C22.1365 192.386 18.6821 195.841 18.6821 200.282C18.6821 204.6 22.2598 208.178 26.7011 208.178C31.1424 208.178 34.8435 204.6 34.8435 200.159V192.263H26.5777ZM26.5777 152.785C22.2598 152.785 18.6821 156.363 18.6821 160.681C18.6821 165.122 22.2598 168.699 26.5777 168.699H34.8435V152.785H26.5777ZM38.6679 168.699H46.9337C51.2516 168.699 54.8293 165.122 54.8293 160.681C54.8293 156.363 51.2516 152.785 46.9337 152.785H38.6679V168.699Z" fill="black"/>
<path d="M6.89139 237.141V221.725H17.2485V224.352H9.88778V228.326H16.0108V230.757H9.88778V237.141H6.89139ZM19.0771 237.141V225.763H21.9867V237.141H19.0771ZM19.0771 224.178V221.291H21.9867V224.178H19.0771ZM29.0625 237.206C28.3098 237.206 27.615 237.061 26.9781 236.772C26.3557 236.468 25.8128 236.048 25.3496 235.513C24.9009 234.977 24.5535 234.362 24.3074 233.667C24.0613 232.972 23.9383 232.234 23.9383 231.452C23.9383 230.627 24.0686 229.86 24.3291 229.151C24.5897 228.441 24.9516 227.819 25.4148 227.283C25.8924 226.733 26.4497 226.313 27.0867 226.024C27.7381 225.72 28.4546 225.568 29.2362 225.568C30.1192 225.568 30.8937 225.771 31.5595 226.176C32.2254 226.567 32.7755 227.095 33.2097 227.761V225.763H35.7501V236.598C35.7501 237.727 35.4751 238.69 34.925 239.486C34.3895 240.297 33.644 240.912 32.6886 241.332C31.7332 241.766 30.6476 241.983 29.4317 241.983C28.2013 241.983 27.159 241.773 26.305 241.353C25.451 240.948 24.7199 240.369 24.112 239.616L25.697 238.075C26.1313 238.61 26.6741 239.03 27.3255 239.334C27.9914 239.638 28.6934 239.79 29.4317 239.79C30.0541 239.79 30.6186 239.674 31.1253 239.443C31.6464 239.225 32.0589 238.878 32.3629 238.4C32.6814 237.937 32.8406 237.336 32.8406 236.598V235.165C32.4642 235.816 31.9287 236.323 31.2338 236.685C30.5535 237.032 29.8297 237.206 29.0625 237.206ZM30.0396 234.883C30.3581 234.883 30.6621 234.832 30.9516 234.731C31.2411 234.63 31.5089 234.492 31.755 234.318C32.001 234.145 32.2182 233.942 32.4063 233.71C32.5945 233.464 32.7393 233.218 32.8406 232.972V230.258C32.6669 229.809 32.4208 229.418 32.1024 229.085C31.7984 228.753 31.451 228.499 31.0601 228.326C30.6838 228.137 30.2857 228.043 29.8659 228.043C29.4172 228.043 29.0119 228.137 28.65 228.326C28.2881 228.514 27.9769 228.781 27.7163 229.129C27.4558 229.462 27.2531 229.838 27.1084 230.258C26.9781 230.663 26.913 231.09 26.913 231.539C26.913 232.002 26.9926 232.437 27.1518 232.842C27.311 233.247 27.5282 233.602 27.8032 233.906C28.0927 234.21 28.4256 234.449 28.802 234.622C29.1928 234.796 29.6054 234.883 30.0396 234.883ZM56.0472 237.141H53.1376V230.757C53.1376 229.86 52.9784 229.201 52.66 228.781C52.356 228.347 51.929 228.13 51.3789 228.13C50.8144 228.13 50.2715 228.354 49.7504 228.803C49.2438 229.237 48.8819 229.809 48.6648 230.519V237.141H45.7552V230.757C45.7552 229.845 45.596 229.18 45.2775 228.76C44.9736 228.34 44.5465 228.13 43.9965 228.13C43.4319 228.13 42.8891 228.347 42.368 228.781C41.8614 229.216 41.4995 229.788 41.2824 230.497V237.141H38.3728V225.763H41.0001V227.87C41.4344 227.131 42.0134 226.567 42.7371 226.176C43.4609 225.771 44.2932 225.568 45.2341 225.568C46.175 225.568 46.906 225.8 47.4271 226.263C47.9627 226.726 48.3029 227.298 48.4476 227.978C48.9109 227.196 49.4971 226.603 50.2064 226.198C50.9302 225.778 51.7408 225.568 52.6382 225.568C53.3475 225.568 53.9193 225.698 54.3536 225.959C54.8023 226.205 55.1497 226.545 55.3958 226.979C55.6419 227.399 55.8083 227.877 55.8952 228.412C55.9965 228.948 56.0472 229.491 56.0472 230.041V237.141ZM57.7986 233.775C57.7986 233.037 58.0013 232.393 58.4066 231.843C58.8264 231.278 59.4054 230.844 60.1436 230.54C60.8819 230.236 61.7287 230.084 62.6841 230.084C63.1617 230.084 63.6467 230.12 64.1388 230.193C64.631 230.265 65.058 230.381 65.4199 230.54V229.932C65.4199 229.209 65.2028 228.651 64.7685 228.26C64.3487 227.87 63.719 227.674 62.8795 227.674C62.257 227.674 61.6636 227.783 61.099 228C60.5345 228.217 59.941 228.535 59.3185 228.955L58.3849 227.044C59.1376 226.552 59.9048 226.183 60.6865 225.937C61.4826 225.691 62.3149 225.568 63.1835 225.568C64.8047 225.568 66.064 225.973 66.9615 226.784C67.8735 227.595 68.3294 228.753 68.3294 230.258V233.884C68.3294 234.188 68.3801 234.405 68.4814 234.535C68.5972 234.666 68.7782 234.745 69.0242 234.774V237.141C68.7637 237.184 68.5248 237.221 68.3077 237.25C68.1051 237.279 67.9314 237.293 67.7866 237.293C67.2076 237.293 66.7661 237.163 66.4621 236.902C66.1726 236.642 65.9917 236.323 65.9193 235.947L65.8542 235.361C65.362 235.997 64.7468 236.49 64.0086 236.837C63.2703 237.184 62.5176 237.358 61.7504 237.358C60.9977 237.358 60.3173 237.206 59.7094 236.902C59.1159 236.584 58.6454 236.157 58.298 235.621C57.9651 235.071 57.7986 234.456 57.7986 233.775ZM64.8771 234.362C65.0363 234.188 65.1666 234.014 65.2679 233.841C65.3692 233.667 65.4199 233.508 65.4199 233.363V232.212C65.0725 232.067 64.6961 231.959 64.2908 231.886C63.8855 231.8 63.5019 231.756 63.14 231.756C62.3873 231.756 61.7649 231.923 61.2727 232.256C60.795 232.574 60.5562 233.001 60.5562 233.537C60.5562 233.826 60.6358 234.101 60.795 234.362C60.9543 234.622 61.1859 234.832 61.4898 234.991C61.7938 235.151 62.1557 235.23 62.5755 235.23C63.0098 235.23 63.4368 235.151 63.8566 234.991C64.2763 234.818 64.6165 234.608 64.8771 234.362Z" fill="black"/>
<path d="M169.763 168.453V172.647L165.075 173.017C166.062 174.251 166.926 175.855 166.926 178.076C166.926 187.698 155.699 187.452 152.368 186.465L150.641 189.179C163.842 189.919 169.393 189.672 169.393 196.951C169.393 202.749 164.335 205.957 155.576 205.957C146.57 205.957 143.116 203.613 143.116 199.665C143.116 197.445 144.103 196.211 145.83 194.607C144.103 193.867 143.609 192.633 143.609 191.276C143.609 189.426 145.09 188.068 148.174 185.231C145.706 183.997 143.856 181.407 143.856 177.705C143.856 167.466 155.083 167.096 160.017 168.453H169.763ZM161.868 198.308C161.868 196.334 159.894 196.581 150.271 195.964C149.654 196.704 148.914 197.568 148.914 198.555C148.914 202.256 161.868 202.256 161.868 198.308ZM155.699 181.653C162.115 181.653 161.868 172.894 155.823 172.894C149.408 172.894 149.161 181.653 155.699 181.653ZM172.107 194.114V190.166C175.438 189.672 175.438 189.919 175.438 188.809V174.004C175.438 173.017 175.192 173.141 172.107 172.03L172.601 167.959H183.087V188.809C183.087 189.549 183.087 189.672 183.828 189.796L186.418 190.166V194.114H172.107ZM178.523 163.888C175.685 163.888 174.081 162.284 174.081 159.447C174.081 156.609 175.685 155.006 178.523 155.006C181.484 155.006 183.087 156.609 183.087 159.447C183.087 162.284 181.484 163.888 178.523 163.888ZM206.281 192.14C204.06 193.127 200.853 194.114 198.015 194.114C192.093 194.114 189.873 191.77 189.873 186.095V172.894C189.873 172.277 189.996 172.401 185.925 172.401V167.959C190.366 167.466 192.093 165.245 192.587 159.817H197.398C197.398 167.959 197.275 167.466 197.768 167.466H204.924V172.401H197.398V184.367C197.398 185.231 196.781 190.783 204.924 187.698L206.281 192.14Z" fill="black"/>
<path d="M168.597 237.25C167.598 237.25 166.65 237.047 165.752 236.642C164.869 236.236 164.088 235.679 163.407 234.97C162.741 234.246 162.22 233.406 161.844 232.451C161.468 231.496 161.279 230.461 161.279 229.346C161.279 228.289 161.468 227.298 161.844 226.371C162.22 225.43 162.749 224.605 163.429 223.896C164.109 223.187 164.906 222.629 165.817 222.224C166.729 221.819 167.721 221.616 168.792 221.616C170.24 221.616 171.477 221.927 172.505 222.55C173.547 223.158 174.329 223.968 174.85 224.982L172.614 226.632C172.223 225.865 171.673 225.278 170.963 224.873C170.269 224.468 169.509 224.265 168.684 224.265C168.032 224.265 167.439 224.403 166.903 224.678C166.368 224.953 165.904 225.329 165.513 225.807C165.123 226.285 164.819 226.835 164.602 227.457C164.399 228.079 164.298 228.738 164.298 229.433C164.298 230.171 164.406 230.851 164.623 231.474C164.855 232.096 165.173 232.639 165.579 233.102C165.998 233.566 166.483 233.935 167.033 234.21C167.583 234.47 168.191 234.601 168.857 234.601C169.639 234.601 170.384 234.398 171.094 233.993C171.817 233.587 172.491 232.994 173.113 232.212V235.165C171.825 236.555 170.319 237.25 168.597 237.25ZM172.896 231.409H169.791V229.216H175.371V237.141H172.896V231.409ZM177.643 237.141V225.763H180.552V237.141H177.643ZM177.643 224.178V221.291H180.552V224.178H177.643ZM189.995 236.555C189.749 236.656 189.452 236.772 189.104 236.902C188.757 237.032 188.381 237.134 187.975 237.206C187.585 237.293 187.186 237.336 186.781 237.336C186.246 237.336 185.753 237.242 185.305 237.054C184.856 236.866 184.494 236.569 184.219 236.164C183.958 235.744 183.828 235.201 183.828 234.535V228H182.33V225.763H183.828V222.072H186.738V225.763H189.126V228H186.738V233.558C186.752 233.949 186.861 234.231 187.063 234.405C187.266 234.579 187.519 234.666 187.823 234.666C188.127 234.666 188.424 234.615 188.714 234.514C189.003 234.412 189.235 234.326 189.408 234.253L189.995 236.555Z" fill="black"/>
<path d="M302.34 197.938C302.34 198.185 302.093 198.308 301.723 198.308C301.353 198.431 301.106 198.185 301.106 197.938C301.106 197.691 301.353 197.445 301.723 197.445C302.093 197.445 302.34 197.691 302.34 197.938ZM298.516 197.321C298.639 197.074 299.009 196.951 299.379 197.074C299.749 197.198 299.873 197.445 299.873 197.691C299.749 197.938 299.379 198.061 299.132 197.938C298.762 197.938 298.516 197.568 298.516 197.321ZM304.067 197.198C304.314 197.074 304.684 197.321 304.684 197.568C304.807 197.815 304.561 197.938 304.19 198.061C303.82 198.185 303.45 198.061 303.45 197.815C303.45 197.445 303.697 197.198 304.067 197.198ZM312.086 149.824C329.234 149.824 343.175 162.901 343.175 179.926C343.175 193.62 334.786 205.34 322.449 209.411C320.845 209.781 320.228 208.794 320.228 207.931C320.228 206.944 320.352 201.762 320.352 197.691C320.352 194.73 319.365 192.88 318.255 191.893C325.163 191.153 332.442 190.166 332.442 178.322C332.442 174.868 331.208 173.264 329.234 171.044C329.481 170.18 330.591 166.972 328.864 162.654C326.274 161.791 320.352 165.985 320.352 165.985C317.884 165.245 315.294 164.998 312.58 164.998C309.989 164.998 307.398 165.245 304.931 165.985C304.931 165.985 298.886 161.914 296.418 162.654C294.691 166.972 295.678 170.18 296.048 171.044C294.074 173.264 293.087 174.868 293.087 178.322C293.087 190.166 300.119 191.153 307.028 191.893C306.041 192.756 305.301 194.114 305.054 196.087C303.204 196.951 298.762 198.308 296.048 193.497C294.321 190.536 291.237 190.289 291.237 190.289C288.276 190.289 291.113 192.263 291.113 192.263C293.087 193.127 294.444 196.704 294.444 196.704C296.295 202.256 304.931 200.405 304.931 200.405C304.931 202.996 304.931 207.191 304.931 208.054C304.931 208.794 304.437 209.781 302.833 209.535C290.497 205.34 281.984 193.62 281.984 179.926C281.984 162.901 295.061 149.824 312.086 149.824ZM293.951 192.386C294.074 192.263 294.321 192.386 294.568 192.51C294.814 192.756 294.814 193.127 294.691 193.25C294.444 193.373 294.198 193.25 293.951 193.127C293.827 192.88 293.704 192.51 293.951 192.386ZM292.594 191.399C292.717 191.276 292.841 191.276 293.087 191.399C293.334 191.523 293.457 191.646 293.457 191.77C293.334 192.016 293.087 192.016 292.841 191.893C292.594 191.77 292.47 191.646 292.594 191.399ZM296.542 195.841C296.788 195.594 297.158 195.717 297.405 195.964C297.652 196.211 297.652 196.581 297.529 196.704C297.405 196.951 297.035 196.828 296.788 196.581C296.418 196.334 296.418 195.964 296.542 195.841ZM295.185 193.99C295.431 193.867 295.678 193.99 295.925 194.237C296.048 194.484 296.048 194.854 295.925 194.977C295.678 195.1 295.431 194.977 295.185 194.73C294.938 194.484 294.938 194.114 295.185 193.99Z" fill="black"/>
<path d="M284.797 237.25C283.798 237.25 282.85 237.047 281.953 236.642C281.07 236.236 280.288 235.679 279.608 234.97C278.942 234.246 278.421 233.406 278.044 232.451C277.668 231.496 277.48 230.461 277.48 229.346C277.48 228.289 277.668 227.298 278.044 226.371C278.421 225.43 278.949 224.605 279.629 223.896C280.31 223.187 281.106 222.629 282.018 222.224C282.93 221.819 283.921 221.616 284.992 221.616C286.44 221.616 287.677 221.927 288.705 222.55C289.747 223.158 290.529 223.968 291.05 224.982L288.814 226.632C288.423 225.865 287.873 225.278 287.164 224.873C286.469 224.468 285.709 224.265 284.884 224.265C284.232 224.265 283.639 224.403 283.103 224.678C282.568 224.953 282.105 225.329 281.714 225.807C281.323 226.285 281.019 226.835 280.802 227.457C280.599 228.079 280.498 228.738 280.498 229.433C280.498 230.171 280.606 230.851 280.823 231.474C281.055 232.096 281.373 232.639 281.779 233.102C282.199 233.566 282.684 233.935 283.234 234.21C283.784 234.47 284.392 234.601 285.057 234.601C285.839 234.601 286.585 234.398 287.294 233.993C288.018 233.587 288.691 232.994 289.313 232.212V235.165C288.025 236.555 286.519 237.25 284.797 237.25ZM289.096 231.409H285.991V229.216H291.571V237.141H289.096V231.409ZM293.843 237.141V225.763H296.752V237.141H293.843ZM293.843 224.178V221.291H296.752V224.178H293.843ZM306.195 236.555C305.949 236.656 305.652 236.772 305.305 236.902C304.957 237.032 304.581 237.134 304.176 237.206C303.785 237.293 303.387 237.336 302.981 237.336C302.446 237.336 301.954 237.242 301.505 237.054C301.056 236.866 300.694 236.569 300.419 236.164C300.159 235.744 300.028 235.201 300.028 234.535V228H298.53V225.763H300.028V222.072H302.938V225.763H305.326V228H302.938V233.558C302.952 233.949 303.061 234.231 303.264 234.405C303.466 234.579 303.72 234.666 304.024 234.666C304.328 234.666 304.624 234.615 304.914 234.514C305.203 234.412 305.435 234.326 305.609 234.253L306.195 236.555ZM320.955 221.725V237.141H317.98V230.562H310.989V237.141H307.992V221.725H310.989V227.956H317.98V221.725H320.955ZM323.78 232.885V225.763H326.69V232.256C326.69 233.124 326.849 233.783 327.168 234.231C327.486 234.666 327.956 234.883 328.579 234.883C328.955 234.883 329.324 234.81 329.686 234.666C330.063 234.506 330.403 234.275 330.707 233.971C331.025 233.667 331.293 233.283 331.51 232.82V225.763H334.42V233.884C334.42 234.188 334.47 234.405 334.572 234.535C334.687 234.666 334.868 234.745 335.115 234.774V237.141C334.825 237.184 334.579 237.213 334.376 237.228C334.188 237.257 334.014 237.271 333.855 237.271C333.334 237.271 332.907 237.155 332.574 236.924C332.256 236.678 332.067 236.345 332.01 235.925L331.944 235.013C331.438 235.78 330.786 236.367 329.99 236.772C329.194 237.163 328.318 237.358 327.363 237.358C326.19 237.358 325.3 236.982 324.692 236.229C324.084 235.462 323.78 234.347 323.78 232.885ZM343.782 237.358C342.913 237.358 342.139 237.163 341.458 236.772C340.778 236.381 340.242 235.845 339.852 235.165V237.141H337.311V221.291H340.221V227.761C340.626 227.081 341.154 226.545 341.806 226.154C342.472 225.763 343.246 225.568 344.129 225.568C344.867 225.568 345.54 225.727 346.148 226.046C346.756 226.35 347.277 226.777 347.712 227.327C348.16 227.877 348.501 228.506 348.732 229.216C348.978 229.925 349.101 230.685 349.101 231.496C349.101 232.306 348.964 233.066 348.689 233.775C348.428 234.485 348.059 235.114 347.581 235.665C347.104 236.2 346.539 236.62 345.888 236.924C345.251 237.213 344.549 237.358 343.782 237.358ZM342.978 234.883C343.441 234.883 343.861 234.796 344.238 234.622C344.628 234.434 344.961 234.188 345.236 233.884C345.526 233.58 345.743 233.225 345.888 232.82C346.047 232.4 346.127 231.966 346.127 231.517C346.127 230.895 345.996 230.323 345.736 229.802C345.49 229.266 345.142 228.839 344.693 228.521C344.259 228.202 343.745 228.043 343.152 228.043C342.732 228.043 342.327 228.145 341.936 228.347C341.56 228.535 341.219 228.796 340.915 229.129C340.626 229.462 340.394 229.838 340.221 230.258V232.972C340.307 233.262 340.445 233.522 340.633 233.754C340.836 233.985 341.067 234.188 341.328 234.362C341.589 234.521 341.856 234.651 342.131 234.753C342.421 234.839 342.703 234.883 342.978 234.883Z" fill="black"/>
<path d="M180.431 317.032C180.431 319.869 178.21 321.596 174.139 321.596H168.958V312.837H175.126C178.457 312.837 180.431 314.317 180.431 317.032ZM203.131 315.428C204.241 319.252 206.215 321.72 209.546 321.966V325.544C206.215 325.791 204.241 328.258 203.008 332.083C201.897 335.907 201.774 340.595 201.897 344.173C202.021 347.874 199.06 351.328 195.112 351.328H154.523C150.576 351.328 147.615 347.874 147.862 344.173C147.985 340.595 147.738 335.907 146.628 332.083C145.394 328.258 143.42 325.791 140.213 325.544V321.966C143.42 321.72 145.394 319.252 146.628 315.428C147.738 311.603 147.985 306.915 147.862 303.338C147.615 299.637 150.576 296.059 154.523 296.059H195.112C199.06 296.059 202.021 299.513 201.897 303.338C201.774 306.915 201.897 311.603 203.131 315.428ZM176.36 338.498C182.775 338.498 186.599 335.29 186.599 330.109C186.599 326.161 183.885 323.323 179.691 322.953V322.707C182.775 322.336 185.119 319.499 185.119 316.415C185.119 311.973 181.665 309.013 176.236 309.013H164.27V338.498H176.36ZM175.126 325.051C179.567 325.051 181.788 326.654 181.788 329.862C181.788 333.07 179.567 334.673 175.373 334.673H168.958V325.051H175.126Z" fill="black"/>
<path d="M138.179 376.441C138.179 377.31 137.955 378.041 137.506 378.634C137.057 379.213 136.45 379.655 135.682 379.959C134.93 380.263 134.105 380.415 133.207 380.415H125.759V364.999H134.01C134.734 364.999 135.357 365.194 135.878 365.585C136.413 365.961 136.819 366.453 137.094 367.061C137.383 367.655 137.528 368.277 137.528 368.929C137.528 369.667 137.34 370.369 136.963 371.035C136.587 371.701 136.037 372.193 135.313 372.511C136.196 372.772 136.891 373.242 137.398 373.923C137.919 374.603 138.179 375.443 138.179 376.441ZM135.161 375.877C135.161 375.486 135.082 375.139 134.922 374.835C134.763 374.516 134.546 374.27 134.271 374.096C134.01 373.908 133.706 373.814 133.359 373.814H128.756V377.874H133.207C133.569 377.874 133.895 377.788 134.184 377.614C134.488 377.426 134.727 377.18 134.901 376.876C135.074 376.572 135.161 376.239 135.161 375.877ZM128.756 367.561V371.447H132.751C133.084 371.447 133.388 371.368 133.663 371.209C133.938 371.049 134.155 370.825 134.314 370.536C134.488 370.246 134.575 369.899 134.575 369.493C134.575 369.102 134.495 368.762 134.336 368.473C134.191 368.183 133.989 367.959 133.728 367.8C133.482 367.64 133.2 367.561 132.881 367.561H128.756ZM145.49 380.632C144.563 380.632 143.731 380.48 142.993 380.176C142.255 379.858 141.625 379.423 141.104 378.873C140.597 378.323 140.206 377.694 139.931 376.984C139.656 376.275 139.519 375.529 139.519 374.748C139.519 373.952 139.656 373.199 139.931 372.49C140.206 371.78 140.597 371.151 141.104 370.601C141.625 370.051 142.255 369.624 142.993 369.32C143.731 369.001 144.563 368.842 145.49 368.842C146.416 368.842 147.241 369.001 147.965 369.32C148.703 369.624 149.333 370.051 149.854 370.601C150.375 371.151 150.766 371.78 151.027 372.49C151.302 373.199 151.439 373.952 151.439 374.748C151.439 375.529 151.302 376.275 151.027 376.984C150.766 377.694 150.375 378.323 149.854 378.873C149.347 379.423 148.725 379.858 147.987 380.176C147.249 380.48 146.416 380.632 145.49 380.632ZM142.515 374.748C142.515 375.414 142.645 376.007 142.906 376.528C143.167 377.035 143.521 377.433 143.97 377.723C144.419 378.012 144.925 378.157 145.49 378.157C146.04 378.157 146.539 378.012 146.988 377.723C147.437 377.419 147.791 377.013 148.052 376.507C148.327 375.985 148.464 375.392 148.464 374.726C148.464 374.075 148.327 373.488 148.052 372.967C147.791 372.446 147.437 372.041 146.988 371.751C146.539 371.462 146.04 371.317 145.49 371.317C144.925 371.317 144.419 371.469 143.97 371.773C143.521 372.063 143.167 372.468 142.906 372.989C142.645 373.496 142.515 374.082 142.515 374.748ZM158.658 380.632C157.731 380.632 156.899 380.48 156.161 380.176C155.422 379.858 154.793 379.423 154.272 378.873C153.765 378.323 153.374 377.694 153.099 376.984C152.824 376.275 152.686 375.529 152.686 374.748C152.686 373.952 152.824 373.199 153.099 372.49C153.374 371.78 153.765 371.151 154.272 370.601C154.793 370.051 155.422 369.624 156.161 369.32C156.899 369.001 157.731 368.842 158.658 368.842C159.584 368.842 160.409 369.001 161.133 369.32C161.871 369.624 162.501 370.051 163.022 370.601C163.543 371.151 163.934 371.78 164.194 372.49C164.469 373.199 164.607 373.952 164.607 374.748C164.607 375.529 164.469 376.275 164.194 376.984C163.934 377.694 163.543 378.323 163.022 378.873C162.515 379.423 161.893 379.858 161.155 380.176C160.416 380.48 159.584 380.632 158.658 380.632ZM155.683 374.748C155.683 375.414 155.813 376.007 156.074 376.528C156.334 377.035 156.689 377.433 157.138 377.723C157.586 378.012 158.093 378.157 158.658 378.157C159.208 378.157 159.707 378.012 160.156 377.723C160.604 377.419 160.959 377.013 161.22 376.507C161.495 375.985 161.632 375.392 161.632 374.726C161.632 374.075 161.495 373.488 161.22 372.967C160.959 372.446 160.604 372.041 160.156 371.751C159.707 371.462 159.208 371.317 158.658 371.317C158.093 371.317 157.586 371.469 157.138 371.773C156.689 372.063 156.334 372.468 156.074 372.989C155.813 373.496 155.683 374.082 155.683 374.748ZM173.219 379.829C172.973 379.93 172.676 380.046 172.329 380.176C171.981 380.306 171.605 380.408 171.2 380.48C170.809 380.567 170.411 380.61 170.005 380.61C169.47 380.61 168.978 380.516 168.529 380.328C168.08 380.14 167.718 379.843 167.443 379.438C167.183 379.018 167.052 378.475 167.052 377.809V371.274H165.554V369.037H167.052V365.346H169.962V369.037H172.35V371.274H169.962V376.832C169.976 377.223 170.085 377.505 170.288 377.679C170.49 377.853 170.744 377.94 171.048 377.94C171.352 377.94 171.648 377.889 171.938 377.788C172.227 377.686 172.459 377.599 172.633 377.527L173.219 379.829ZM178.925 380.632C177.955 380.632 177.029 380.473 176.146 380.154C175.263 379.836 174.503 379.365 173.866 378.743L174.908 376.854C175.588 377.404 176.254 377.809 176.906 378.07C177.571 378.33 178.208 378.461 178.816 378.461C179.381 378.461 179.83 378.359 180.163 378.157C180.51 377.954 180.684 377.65 180.684 377.245C180.684 376.97 180.59 376.76 180.401 376.615C180.213 376.456 179.938 376.318 179.576 376.203C179.229 376.087 178.802 375.957 178.295 375.812C177.456 375.537 176.754 375.269 176.189 375.008C175.625 374.748 175.197 374.422 174.908 374.031C174.633 373.626 174.495 373.112 174.495 372.49C174.495 371.737 174.684 371.093 175.06 370.557C175.451 370.007 175.986 369.58 176.667 369.276C177.362 368.972 178.172 368.82 179.099 368.82C179.909 368.82 180.676 368.95 181.4 369.211C182.124 369.457 182.783 369.862 183.376 370.427L182.204 372.273C181.625 371.824 181.074 371.498 180.553 371.295C180.032 371.078 179.504 370.97 178.968 370.97C178.664 370.97 178.375 371.006 178.1 371.078C177.839 371.151 177.622 371.274 177.448 371.447C177.289 371.607 177.21 371.838 177.21 372.142C177.21 372.417 177.282 372.634 177.427 372.794C177.586 372.938 177.818 373.069 178.122 373.184C178.44 373.3 178.824 373.431 179.272 373.575C180.184 373.836 180.951 374.104 181.574 374.379C182.211 374.654 182.688 374.994 183.007 375.399C183.325 375.79 183.485 376.333 183.485 377.028C183.485 378.157 183.072 379.04 182.247 379.677C181.422 380.314 180.315 380.632 178.925 380.632ZM192.218 379.829C191.972 379.93 191.675 380.046 191.328 380.176C190.98 380.306 190.604 380.408 190.199 380.48C189.808 380.567 189.41 380.61 189.004 380.61C188.469 380.61 187.977 380.516 187.528 380.328C187.079 380.14 186.717 379.843 186.442 379.438C186.182 379.018 186.051 378.475 186.051 377.809V371.274H184.553V369.037H186.051V365.346H188.961V369.037H191.349V371.274H188.961V376.832C188.975 377.223 189.084 377.505 189.287 377.679C189.489 377.853 189.743 377.94 190.047 377.94C190.35 377.94 190.647 377.889 190.937 377.788C191.226 377.686 191.458 377.599 191.632 377.527L192.218 379.829ZM200.508 371.556C199.625 371.556 198.836 371.73 198.141 372.077C197.446 372.41 196.947 372.895 196.643 373.532V380.415H193.733V369.037H196.404V371.469C196.809 370.688 197.323 370.072 197.945 369.624C198.568 369.175 199.227 368.929 199.921 368.885C200.081 368.885 200.204 368.885 200.29 368.885C200.377 368.885 200.45 368.893 200.508 368.907V371.556ZM201.285 377.049C201.285 376.311 201.487 375.667 201.893 375.117C202.312 374.552 202.891 374.118 203.63 373.814C204.368 373.51 205.215 373.358 206.17 373.358C206.648 373.358 207.133 373.394 207.625 373.467C208.117 373.539 208.544 373.655 208.906 373.814V373.206C208.906 372.482 208.689 371.925 208.255 371.534C207.835 371.143 207.205 370.948 206.366 370.948C205.743 370.948 205.15 371.057 204.585 371.274C204.021 371.491 203.427 371.809 202.805 372.229L201.871 370.318C202.624 369.826 203.391 369.457 204.173 369.211C204.969 368.965 205.801 368.842 206.669 368.842C208.291 368.842 209.55 369.247 210.448 370.058C211.359 370.868 211.815 372.026 211.815 373.532V377.158C211.815 377.462 211.866 377.679 211.967 377.809C212.083 377.94 212.264 378.019 212.51 378.048V380.415C212.25 380.458 212.011 380.495 211.794 380.523C211.591 380.552 211.417 380.567 211.273 380.567C210.694 380.567 210.252 380.437 209.948 380.176C209.659 379.916 209.478 379.597 209.405 379.221L209.34 378.634C208.848 379.271 208.233 379.764 207.495 380.111C206.756 380.458 206.004 380.632 205.236 380.632C204.484 380.632 203.803 380.48 203.195 380.176C202.602 379.858 202.131 379.431 201.784 378.895C201.451 378.345 201.285 377.73 201.285 377.049ZM208.363 377.636C208.522 377.462 208.653 377.288 208.754 377.115C208.855 376.941 208.906 376.782 208.906 376.637V375.486C208.559 375.341 208.182 375.233 207.777 375.16C207.372 375.074 206.988 375.03 206.626 375.03C205.873 375.03 205.251 375.197 204.759 375.529C204.281 375.848 204.042 376.275 204.042 376.811C204.042 377.1 204.122 377.375 204.281 377.636C204.44 377.896 204.672 378.106 204.976 378.265C205.28 378.425 205.642 378.504 206.062 378.504C206.496 378.504 206.923 378.425 207.343 378.265C207.762 378.092 208.103 377.882 208.363 377.636ZM221.352 380.632C220.469 380.632 219.688 380.437 219.007 380.046C218.341 379.64 217.82 379.098 217.444 378.417V385.04H214.534V369.037H217.075V370.991C217.509 370.326 218.059 369.805 218.725 369.428C219.391 369.037 220.151 368.842 221.005 368.842C221.772 368.842 222.474 368.994 223.111 369.298C223.762 369.602 224.327 370.029 224.805 370.579C225.282 371.115 225.651 371.737 225.912 372.446C226.187 373.141 226.324 373.894 226.324 374.704C226.324 375.805 226.107 376.803 225.673 377.701C225.253 378.598 224.667 379.315 223.914 379.85C223.176 380.371 222.322 380.632 221.352 380.632ZM220.375 378.157C220.824 378.157 221.229 378.063 221.591 377.874C221.953 377.686 222.264 377.433 222.525 377.115C222.8 376.782 223.002 376.412 223.133 376.007C223.277 375.587 223.35 375.153 223.35 374.704C223.35 374.227 223.27 373.785 223.111 373.38C222.966 372.975 222.749 372.62 222.46 372.316C222.17 371.998 221.83 371.751 221.439 371.578C221.063 371.404 220.65 371.317 220.201 371.317C219.926 371.317 219.644 371.368 219.355 371.469C219.08 371.556 218.812 371.686 218.551 371.86C218.291 372.034 218.059 372.236 217.856 372.468C217.668 372.7 217.531 372.953 217.444 373.228V375.899C217.618 376.318 217.849 376.702 218.139 377.049C218.443 377.397 218.79 377.672 219.181 377.874C219.572 378.063 219.97 378.157 220.375 378.157Z" fill="black"/>
<path d="M29.2829 380.415V364.999H32.2793V380.415H29.2829ZM47.0253 367.626H42.0964V380.415H39.1218V367.626H34.1929V364.999H47.0253V367.626Z" fill="black"/>
<g clip-path="url(#clip0_98_516)">
<path d="M26.7733 302.703C26.7733 301.362 25.6947 300.283 24.354 300.283C23.0133 300.283 21.9347 301.362 21.9347 302.703V306.735C18.3763 306.735 15.4832 309.628 15.4832 313.186H11.451C10.1103 313.186 9.03174 314.265 9.03174 315.606C9.03174 316.946 10.1103 318.025 11.451 318.025H15.4832V323.67H11.451C10.1103 323.67 9.03174 324.749 9.03174 326.089C9.03174 327.43 10.1103 328.509 11.451 328.509H15.4832V334.154H11.451C10.1103 334.154 9.03174 335.232 9.03174 336.573C9.03174 337.914 10.1103 338.992 11.451 338.992H15.4832C15.4832 342.551 18.3763 345.444 21.9347 345.444V349.476C21.9347 350.817 23.0133 351.895 24.354 351.895C25.6947 351.895 26.7733 350.817 26.7733 349.476V345.444H32.4184V349.476C32.4184 350.817 33.497 351.895 34.8377 351.895C36.1784 351.895 37.257 350.817 37.257 349.476V345.444H42.9021V349.476C42.9021 350.817 43.9807 351.895 45.3214 351.895C46.6621 351.895 47.7407 350.817 47.7407 349.476V345.444C51.2991 345.444 54.1922 342.551 54.1922 338.992H58.2244C59.5651 338.992 60.6437 337.914 60.6437 336.573C60.6437 335.232 59.5651 334.154 58.2244 334.154H54.1922V328.509H58.2244C59.5651 328.509 60.6437 327.43 60.6437 326.089C60.6437 324.749 59.5651 323.67 58.2244 323.67H54.1922V318.025H58.2244C59.5651 318.025 60.6437 316.946 60.6437 315.606C60.6437 314.265 59.5651 313.186 58.2244 313.186H54.1922C54.1922 309.628 51.2991 306.735 47.7407 306.735V302.703C47.7407 301.362 46.6621 300.283 45.3214 300.283C43.9807 300.283 42.9021 301.362 42.9021 302.703V306.735H37.257V302.703C37.257 301.362 36.1784 300.283 34.8377 300.283C33.497 300.283 32.4184 301.362 32.4184 302.703V306.735H26.7733V302.703ZM25.1605 313.186H44.5149C46.2992 313.186 47.7407 314.628 47.7407 316.412V335.767C47.7407 337.551 46.2992 338.992 44.5149 338.992H25.1605C23.3762 338.992 21.9347 337.551 21.9347 335.767V316.412C21.9347 314.628 23.3762 313.186 25.1605 313.186ZM44.5149 316.412H25.1605V335.767H44.5149V316.412Z" fill="black"/>
</g>
<path d="M290.62 369.037C290.518 368.936 290.33 368.798 290.055 368.625C289.795 368.451 289.469 368.285 289.078 368.125C288.702 367.966 288.289 367.829 287.841 367.713C287.392 367.583 286.936 367.517 286.473 367.517C285.662 367.517 285.047 367.669 284.627 367.973C284.222 368.277 284.019 368.704 284.019 369.254C284.019 369.674 284.149 370.007 284.41 370.253C284.67 370.499 285.061 370.709 285.582 370.883C286.104 371.057 286.755 371.245 287.537 371.447C288.55 371.694 289.426 371.998 290.164 372.359C290.917 372.707 291.488 373.17 291.879 373.749C292.284 374.314 292.487 375.066 292.487 376.007C292.487 376.832 292.335 377.542 292.031 378.135C291.727 378.714 291.307 379.185 290.772 379.546C290.236 379.908 289.628 380.176 288.948 380.35C288.268 380.509 287.544 380.589 286.777 380.589C286.009 380.589 285.242 380.509 284.475 380.35C283.708 380.191 282.97 379.966 282.26 379.677C281.551 379.373 280.9 379.011 280.306 378.591L281.631 376.007C281.761 376.137 281.993 376.311 282.325 376.528C282.658 376.731 283.064 376.941 283.541 377.158C284.019 377.361 284.54 377.534 285.105 377.679C285.669 377.824 286.241 377.896 286.82 377.896C287.631 377.896 288.246 377.759 288.666 377.484C289.085 377.209 289.295 376.818 289.295 376.311C289.295 375.848 289.129 375.486 288.796 375.226C288.463 374.965 288 374.741 287.406 374.552C286.813 374.35 286.111 374.133 285.3 373.901C284.33 373.626 283.52 373.322 282.868 372.989C282.217 372.642 281.732 372.207 281.414 371.686C281.095 371.165 280.936 370.514 280.936 369.732C280.936 368.675 281.182 367.792 281.674 367.083C282.181 366.359 282.861 365.817 283.715 365.455C284.569 365.078 285.517 364.89 286.559 364.89C287.283 364.89 287.964 364.97 288.601 365.129C289.252 365.288 289.86 365.498 290.424 365.759C290.989 366.019 291.496 366.301 291.944 366.605L290.62 369.037ZM299.767 380.632C298.841 380.632 298.008 380.48 297.27 380.176C296.532 379.858 295.902 379.423 295.381 378.873C294.86 378.309 294.455 377.672 294.165 376.963C293.89 376.253 293.753 375.508 293.753 374.726C293.753 373.655 293.991 372.678 294.469 371.795C294.961 370.897 295.656 370.181 296.554 369.645C297.451 369.11 298.515 368.842 299.745 368.842C300.976 368.842 302.032 369.11 302.915 369.645C303.798 370.181 304.457 370.883 304.891 371.751L302.047 372.62C301.801 372.2 301.475 371.882 301.07 371.665C300.665 371.433 300.216 371.317 299.724 371.317C299.174 371.317 298.667 371.462 298.204 371.751C297.755 372.026 297.4 372.425 297.14 372.946C296.879 373.452 296.749 374.046 296.749 374.726C296.749 375.392 296.879 375.985 297.14 376.507C297.415 377.013 297.777 377.419 298.225 377.723C298.674 378.012 299.174 378.157 299.724 378.157C300.071 378.157 300.397 378.099 300.701 377.983C301.019 377.867 301.301 377.708 301.548 377.505C301.794 377.303 301.975 377.071 302.09 376.811L304.935 377.679C304.674 378.244 304.291 378.75 303.784 379.199C303.292 379.648 302.706 380.002 302.025 380.263C301.359 380.509 300.607 380.632 299.767 380.632ZM313.5 371.556C312.617 371.556 311.828 371.73 311.133 372.077C310.438 372.41 309.939 372.895 309.635 373.532V380.415H306.725V369.037H309.396V371.469C309.801 370.688 310.315 370.072 310.937 369.624C311.56 369.175 312.218 368.929 312.913 368.885C313.072 368.885 313.196 368.885 313.282 368.885C313.369 368.885 313.442 368.893 313.5 368.907V371.556ZM315.013 376.159V369.037H317.923V375.529C317.923 376.398 318.082 377.057 318.401 377.505C318.719 377.94 319.189 378.157 319.812 378.157C320.188 378.157 320.557 378.084 320.919 377.94C321.296 377.78 321.636 377.549 321.94 377.245C322.258 376.941 322.526 376.557 322.743 376.094V369.037H325.653V377.158C325.653 377.462 325.703 377.679 325.805 377.809C325.92 377.94 326.101 378.019 326.347 378.048V380.415C326.058 380.458 325.812 380.487 325.609 380.502C325.421 380.531 325.247 380.545 325.088 380.545C324.567 380.545 324.14 380.429 323.807 380.198C323.489 379.952 323.3 379.619 323.243 379.199L323.177 378.287C322.671 379.054 322.019 379.64 321.223 380.046C320.427 380.437 319.551 380.632 318.596 380.632C317.423 380.632 316.533 380.256 315.925 379.503C315.317 378.736 315.013 377.621 315.013 376.159ZM346.218 380.415H343.309V374.031C343.309 373.134 343.15 372.475 342.831 372.055C342.527 371.621 342.1 371.404 341.55 371.404C340.986 371.404 340.443 371.628 339.922 372.077C339.415 372.511 339.053 373.083 338.836 373.792V380.415H335.926V374.031C335.926 373.119 335.767 372.453 335.449 372.034C335.145 371.614 334.718 371.404 334.168 371.404C333.603 371.404 333.06 371.621 332.539 372.055C332.033 372.49 331.671 373.061 331.454 373.771V380.415H328.544V369.037H331.171V371.143C331.606 370.405 332.185 369.841 332.908 369.45C333.632 369.045 334.464 368.842 335.405 368.842C336.346 368.842 337.077 369.074 337.598 369.537C338.134 370 338.474 370.572 338.619 371.252C339.082 370.47 339.668 369.877 340.378 369.472C341.101 369.052 341.912 368.842 342.809 368.842C343.519 368.842 344.091 368.972 344.525 369.233C344.974 369.479 345.321 369.819 345.567 370.253C345.813 370.673 345.98 371.151 346.066 371.686C346.168 372.222 346.218 372.765 346.218 373.315V380.415Z" fill="black"/>
<path d="M314.187 304.719C318.542 304.719 322.545 306.25 325.675 308.813L321.978 312.51C321.457 313.031 321.309 313.814 321.581 314.483C321.854 315.152 322.523 315.606 323.26 315.606H335.961C336.959 315.606 337.776 314.789 337.776 313.791V301.09C337.776 300.353 337.333 299.695 336.653 299.412C335.973 299.128 335.19 299.287 334.68 299.808L330.824 303.664C326.367 299.797 320.549 297.461 314.187 297.461C312.951 297.461 311.749 297.552 310.558 297.722V305.082C311.727 304.844 312.94 304.719 314.187 304.719ZM300.137 311.376L303.834 315.073C304.355 315.594 305.138 315.742 305.807 315.47C306.476 315.197 306.929 314.528 306.929 313.791V301.09C306.929 300.092 306.113 299.275 305.115 299.275H292.414C291.676 299.275 291.019 299.718 290.735 300.398C290.452 301.079 290.61 301.861 291.132 302.371L294.988 306.227C291.121 310.684 288.785 316.502 288.785 322.864C288.785 324.1 288.875 325.302 289.045 326.493H296.405C296.167 325.325 296.043 324.111 296.043 322.864C296.043 318.509 297.574 314.506 300.137 311.376ZM339.329 319.235H331.969C332.207 320.403 332.332 321.616 332.332 322.864C332.332 327.218 330.801 331.222 328.238 334.352L324.541 330.655C324.02 330.133 323.237 329.986 322.568 330.258C321.899 330.53 321.445 331.199 321.445 331.936V344.637C321.445 345.635 322.262 346.452 323.26 346.452H335.961C336.698 346.452 337.356 346.01 337.64 345.329C337.923 344.649 337.764 343.866 337.243 343.356L333.387 339.5C337.254 335.043 339.59 329.226 339.59 322.864C339.59 321.628 339.499 320.425 339.329 319.235ZM314.187 341.008C309.833 341.008 305.829 339.478 302.699 336.915L306.396 333.218C306.918 332.696 307.066 331.913 306.793 331.244C306.521 330.575 305.852 330.122 305.115 330.122H292.414C291.416 330.122 290.599 330.938 290.599 331.936V344.637C290.599 345.375 291.041 346.032 291.722 346.316C292.402 346.599 293.185 346.441 293.695 345.919L297.551 342.063C302.008 345.93 307.825 348.266 314.187 348.266C315.424 348.266 316.626 348.176 317.816 348.006V340.646C316.648 340.884 315.435 341.008 314.187 341.008Z" fill="black"/>
<defs>
<clipPath id="clip0_98_516">
<rect width="51.6119" height="51.6119" fill="white" transform="translate(9.03174 300.283)"/>
</clipPath>
</defs>
</svg>
